<?xml version="1.0" encoding="UTF-8" standalone="no"?>
<!DOCTYPE svg PUBLIC "-//W3C//DTD SVG 1.1//EN"
 "http://www.w3.org/Graphics/SVG/1.1/DTD/svg11.dtd">
<!-- Generated by graphviz version 2.40.1 (20161225.0304)
 -->
<!-- Title: dependencies Pages: 1 -->
<svg width="953pt" height="211pt"
 viewBox="0.00 0.00 953.00 211.00" xmlns="http://www.w3.org/2000/svg" xmlns:xlink="http://www.w3.org/1999/xlink">
<g id="graph0" class="graph" transform="scale(1 1) rotate(0) translate(4 207)">
<title>dependencies</title>
<polygon fill="#ffffff" stroke="transparent" points="-4,4 -4,-207 949,-207 949,4 -4,4"/>
<text text-anchor="start" x="451.5091" y="-42.4" font-family="sans-serif" font-weight="bold" font-size="14.00" fill="#000000">Legend</text>
<polygon fill="#ffffb3" stroke="transparent" points="238.5,-10 238.5,-30 258.5,-30 258.5,-10 238.5,-10"/>
<text text-anchor="start" x="262.129" y="-15.4" font-family="sans-serif" font-size="14.00" fill="#000000"> &#160;Declarations</text>
<polygon fill="#8dd3c7" stroke="transparent" points="351.5,-10 351.5,-30 371.5,-30 371.5,-10 351.5,-10"/>
<text text-anchor="start" x="375.2251" y="-15.4" font-family="sans-serif" font-size="14.00" fill="#000000"> &#160;Module</text>
<polygon fill="#80b1d3" stroke="transparent" points="437.5,-10 437.5,-30 457.5,-30 457.5,-10 437.5,-10"/>
<text text-anchor="start" x="461.2812" y="-15.4" font-family="sans-serif" font-size="14.00" fill="#000000"> &#160;Bootstrap</text>
<polygon fill="#fdb462" stroke="transparent" points="534.5,-10 534.5,-30 554.5,-30 554.5,-10 534.5,-10"/>
<text text-anchor="start" x="558.1732" y="-15.4" font-family="sans-serif" font-size="14.00" fill="#000000"> &#160;Providers</text>
<polygon fill="#fb8072" stroke="transparent" points="630.5,-10 630.5,-30 650.5,-30 650.5,-10 630.5,-10"/>
<text text-anchor="start" x="654.2258" y="-15.4" font-family="sans-serif" font-size="14.00" fill="#000000"> &#160;Exports</text>
<g id="clust1" class="cluster">
<title>cluster_ProblemsModule</title>
<polygon fill="none" stroke="#000000" stroke-dasharray="1,5" points="8,-70 8,-195 937,-195 937,-70 8,-70"/>
</g>
<g id="clust2" class="cluster">
<title>cluster_ProblemsModule_declarations</title>
<polygon fill="none" stroke="#000000" points="198,-78 198,-130 929,-130 929,-78 198,-78"/>
</g>
<g id="clust8" class="cluster">
<title>cluster_ProblemsModule_imports</title>
<polygon fill="none" stroke="#000000" points="16,-78 16,-130 190,-130 190,-78 16,-78"/>
</g>
<!-- EnumPipe -->
<g id="node1" class="node">
<title>EnumPipe</title>
<polygon fill="#ffffb3" stroke="#000000" points="921.3317,-122 846.6683,-122 846.6683,-86 921.3317,-86 921.3317,-122"/>
<text text-anchor="middle" x="884" y="-99.8" font-family="Times,serif" font-size="14.00" fill="#000000">EnumPipe</text>
</g>
<!-- ProblemsModule -->
<g id="node6" class="node">
<title>ProblemsModule</title>
<polygon fill="#8dd3c7" stroke="#000000" points="532.4342,-187 529.4342,-191 508.4342,-191 505.4342,-187 419.5658,-187 419.5658,-151 532.4342,-151 532.4342,-187"/>
<text text-anchor="middle" x="476" y="-164.8" font-family="Times,serif" font-size="14.00" fill="#000000">ProblemsModule</text>
</g>
<!-- EnumPipe&#45;&gt;ProblemsModule -->
<g id="edge1" class="edge">
<title>EnumPipe&#45;&gt;ProblemsModule</title>
<path fill="none" stroke="#000000" d="M884,-122.2843C884,-143.3211 884,-175 884,-175 884,-175 542.3023,-175 542.3023,-175"/>
<polygon fill="#000000" stroke="#000000" points="542.3023,-171.5001 532.3023,-175 542.3023,-178.5001 542.3023,-171.5001"/>
</g>
<!-- ProblemDetailsComponent -->
<g id="node2" class="node">
<title>ProblemDetailsComponent</title>
<polygon fill="#ffffb3" stroke="#000000" points="829.4241,-122 660.5759,-122 660.5759,-86 829.4241,-86 829.4241,-122"/>
<text text-anchor="middle" x="745" y="-99.8" font-family="Times,serif" font-size="14.00" fill="#000000">ProblemDetailsComponent</text>
</g>
<!-- ProblemDetailsComponent&#45;&gt;ProblemsModule -->
<g id="edge2" class="edge">
<title>ProblemDetailsComponent&#45;&gt;ProblemsModule</title>
<path fill="none" stroke="#000000" d="M745,-122.0225C745,-139.3734 745,-163 745,-163 745,-163 542.3912,-163 542.3912,-163"/>
<polygon fill="#000000" stroke="#000000" points="542.3912,-159.5001 532.3912,-163 542.3912,-166.5001 542.3912,-159.5001"/>
</g>
<!-- ProblemFormComponent -->
<g id="node3" class="node">
<title>ProblemFormComponent</title>
<polygon fill="#ffffb3" stroke="#000000" points="642.6052,-122 483.3948,-122 483.3948,-86 642.6052,-86 642.6052,-122"/>
<text text-anchor="middle" x="563" y="-99.8" font-family="Times,serif" font-size="14.00" fill="#000000">ProblemFormComponent</text>
</g>
<!-- ProblemFormComponent&#45;&gt;ProblemsModule -->
<g id="edge3" class="edge">
<title>ProblemFormComponent&#45;&gt;ProblemsModule</title>
<path fill="none" stroke="#000000" d="M507.8321,-122.1061C507.8321,-122.1061 507.8321,-140.991 507.8321,-140.991"/>
<polygon fill="#000000" stroke="#000000" points="504.3321,-140.9909 507.8321,-150.991 511.3321,-140.991 504.3321,-140.9909"/>
</g>
<!-- ProblemListComponent -->
<g id="node4" class="node">
<title>ProblemListComponent</title>
<polygon fill="#ffffb3" stroke="#000000" points="465.0505,-122 314.9495,-122 314.9495,-86 465.0505,-86 465.0505,-122"/>
<text text-anchor="middle" x="390" y="-99.8" font-family="Times,serif" font-size="14.00" fill="#000000">ProblemListComponent</text>
</g>
<!-- ProblemListComponent&#45;&gt;ProblemsModule -->
<g id="edge4" class="edge">
<title>ProblemListComponent&#45;&gt;ProblemsModule</title>
<path fill="none" stroke="#000000" d="M442.5291,-122.1061C442.5291,-122.1061 442.5291,-140.991 442.5291,-140.991"/>
<polygon fill="#000000" stroke="#000000" points="439.0292,-140.9909 442.5291,-150.991 446.0292,-140.991 439.0292,-140.9909"/>
</g>
<!-- TruncatePipe -->
<g id="node5" class="node">
<title>TruncatePipe</title>
<polygon fill="#ffffb3" stroke="#000000" points="296.1361,-122 205.8639,-122 205.8639,-86 296.1361,-86 296.1361,-122"/>
<text text-anchor="middle" x="251" y="-99.8" font-family="Times,serif" font-size="14.00" fill="#000000">TruncatePipe</text>
</g>
<!-- TruncatePipe&#45;&gt;ProblemsModule -->
<g id="edge5" class="edge">
<title>TruncatePipe&#45;&gt;ProblemsModule</title>
<path fill="none" stroke="#000000" d="M251,-122.0225C251,-139.3734 251,-163 251,-163 251,-163 409.5134,-163 409.5134,-163"/>
<polygon fill="#000000" stroke="#000000" points="409.5135,-166.5001 419.5134,-163 409.5134,-159.5001 409.5135,-166.5001"/>
</g>
<!-- ProblemsRoutingModule -->
<g id="node7" class="node">
<title>ProblemsRoutingModule</title>
<polygon fill="#8dd3c7" stroke="#000000" points="181.5518,-122 178.5518,-126 157.5518,-126 154.5518,-122 24.4482,-122 24.4482,-86 181.5518,-86 181.5518,-122"/>
<text text-anchor="middle" x="103" y="-99.8" font-family="Times,serif" font-size="14.00" fill="#000000">ProblemsRoutingModule</text>
</g>
<!-- ProblemsRoutingModule&#45;&gt;ProblemsModule -->
<g id="edge6" class="edge">
<title>ProblemsRoutingModule&#45;&gt;ProblemsModule</title>
<path fill="none" stroke="#000000" d="M103,-122.2843C103,-143.3211 103,-175 103,-175 103,-175 409.7543,-175 409.7543,-175"/>
<polygon fill="#000000" stroke="#000000" points="409.7543,-178.5001 419.7543,-175 409.7542,-171.5001 409.7543,-178.5001"/>
</g>
</g>
</svg>
