<?xml version="1.0" encoding="UTF-8" standalone="no"?>
<!DOCTYPE svg PUBLIC "-//W3C//DTD SVG 1.1//EN"
 "http://www.w3.org/Graphics/SVG/1.1/DTD/svg11.dtd">
<!-- Generated by graphviz version 2.40.1 (20161225.0304)
 -->
<!-- Title: dependencies Pages: 1 -->
<svg width="1468pt" height="211pt"
 viewBox="0.00 0.00 1468.00 211.00" xmlns="http://www.w3.org/2000/svg" xmlns:xlink="http://www.w3.org/1999/xlink">
<g id="graph0" class="graph" transform="scale(1 1) rotate(0) translate(4 207)">
<title>dependencies</title>
<polygon fill="#ffffff" stroke="transparent" points="-4,4 -4,-207 1464,-207 1464,4 -4,4"/>
<text text-anchor="start" x="709.0091" y="-42.4" font-family="sans-serif" font-weight="bold" font-size="14.00" fill="#000000">Legend</text>
<polygon fill="#ffffb3" stroke="transparent" points="496,-10 496,-30 516,-30 516,-10 496,-10"/>
<text text-anchor="start" x="519.629" y="-15.4" font-family="sans-serif" font-size="14.00" fill="#000000"> &#160;Declarations</text>
<polygon fill="#8dd3c7" stroke="transparent" points="609,-10 609,-30 629,-30 629,-10 609,-10"/>
<text text-anchor="start" x="632.7251" y="-15.4" font-family="sans-serif" font-size="14.00" fill="#000000"> &#160;Module</text>
<polygon fill="#80b1d3" stroke="transparent" points="695,-10 695,-30 715,-30 715,-10 695,-10"/>
<text text-anchor="start" x="718.7812" y="-15.4" font-family="sans-serif" font-size="14.00" fill="#000000"> &#160;Bootstrap</text>
<polygon fill="#fdb462" stroke="transparent" points="792,-10 792,-30 812,-30 812,-10 792,-10"/>
<text text-anchor="start" x="815.6732" y="-15.4" font-family="sans-serif" font-size="14.00" fill="#000000"> &#160;Providers</text>
<polygon fill="#fb8072" stroke="transparent" points="888,-10 888,-30 908,-30 908,-10 888,-10"/>
<text text-anchor="start" x="911.7258" y="-15.4" font-family="sans-serif" font-size="14.00" fill="#000000"> &#160;Exports</text>
<g id="clust1" class="cluster">
<title>cluster_TestCasesModule</title>
<polygon fill="none" stroke="#000000" stroke-dasharray="1,5" points="8,-70 8,-195 1452,-195 1452,-70 8,-70"/>
</g>
<g id="clust2" class="cluster">
<title>cluster_TestCasesModule_declarations</title>
<polygon fill="none" stroke="#000000" points="202,-78 202,-130 1444,-130 1444,-78 202,-78"/>
</g>
<g id="clust10" class="cluster">
<title>cluster_TestCasesModule_imports</title>
<polygon fill="none" stroke="#000000" points="16,-78 16,-130 194,-130 194,-78 16,-78"/>
</g>
<!-- FunctionFormComponent -->
<g id="node1" class="node">
<title>FunctionFormComponent</title>
<polygon fill="#ffffb3" stroke="#000000" points="1435.9452,-122 1274.0548,-122 1274.0548,-86 1435.9452,-86 1435.9452,-122"/>
<text text-anchor="middle" x="1355" y="-99.8" font-family="Times,serif" font-size="14.00" fill="#000000">FunctionFormComponent</text>
</g>
<!-- TestCasesModule -->
<g id="node8" class="node">
<title>TestCasesModule</title>
<polygon fill="#8dd3c7" stroke="#000000" points="785.3076,-187 782.3076,-191 761.3076,-191 758.3076,-187 668.6924,-187 668.6924,-151 785.3076,-151 785.3076,-187"/>
<text text-anchor="middle" x="727" y="-164.8" font-family="Times,serif" font-size="14.00" fill="#000000">TestCasesModule</text>
</g>
<!-- FunctionFormComponent&#45;&gt;TestCasesModule -->
<g id="edge1" class="edge">
<title>FunctionFormComponent&#45;&gt;TestCasesModule</title>
<path fill="none" stroke="#000000" d="M1355,-122.2921C1355,-144.2057 1355,-178 1355,-178 1355,-178 795.2356,-178 795.2356,-178"/>
<polygon fill="#000000" stroke="#000000" points="795.2357,-174.5001 785.2356,-178 795.2356,-181.5001 795.2357,-174.5001"/>
</g>
<!-- ParameterFormComponent -->
<g id="node2" class="node">
<title>ParameterFormComponent</title>
<polygon fill="#ffffb3" stroke="#000000" points="1256.4101,-122 1087.5899,-122 1087.5899,-86 1256.4101,-86 1256.4101,-122"/>
<text text-anchor="middle" x="1172" y="-99.8" font-family="Times,serif" font-size="14.00" fill="#000000">ParameterFormComponent</text>
</g>
<!-- ParameterFormComponent&#45;&gt;TestCasesModule -->
<g id="edge2" class="edge">
<title>ParameterFormComponent&#45;&gt;TestCasesModule</title>
<path fill="none" stroke="#000000" d="M1172,-122.1061C1172,-141.3391 1172,-169 1172,-169 1172,-169 795.176,-169 795.176,-169"/>
<polygon fill="#000000" stroke="#000000" points="795.176,-165.5001 785.176,-169 795.1759,-172.5001 795.176,-165.5001"/>
</g>
<!-- ParameterListComponent -->
<g id="node3" class="node">
<title>ParameterListComponent</title>
<polygon fill="#ffffb3" stroke="#000000" points="1069.8543,-122 910.1457,-122 910.1457,-86 1069.8543,-86 1069.8543,-122"/>
<text text-anchor="middle" x="990" y="-99.8" font-family="Times,serif" font-size="14.00" fill="#000000">ParameterListComponent</text>
</g>
<!-- ParameterListComponent&#45;&gt;TestCasesModule -->
<g id="edge3" class="edge">
<title>ParameterListComponent&#45;&gt;TestCasesModule</title>
<path fill="none" stroke="#000000" d="M990,-122.027C990,-138.3976 990,-160 990,-160 990,-160 795.3682,-160 795.3682,-160"/>
<polygon fill="#000000" stroke="#000000" points="795.3683,-156.5001 785.3682,-160 795.3682,-163.5001 795.3683,-156.5001"/>
</g>
<!-- SampleFormComponent -->
<g id="node4" class="node">
<title>SampleFormComponent</title>
<polygon fill="#ffffb3" stroke="#000000" points="891.6596,-122 738.3404,-122 738.3404,-86 891.6596,-86 891.6596,-122"/>
<text text-anchor="middle" x="815" y="-99.8" font-family="Times,serif" font-size="14.00" fill="#000000">SampleFormComponent</text>
</g>
<!-- SampleFormComponent&#45;&gt;TestCasesModule -->
<g id="edge4" class="edge">
<title>SampleFormComponent&#45;&gt;TestCasesModule</title>
<path fill="none" stroke="#000000" d="M761.662,-122.1061C761.662,-122.1061 761.662,-140.991 761.662,-140.991"/>
<polygon fill="#000000" stroke="#000000" points="758.1621,-140.9909 761.662,-150.991 765.1621,-140.991 758.1621,-140.9909"/>
</g>
<!-- TestCaseFormComponent -->
<g id="node5" class="node">
<title>TestCaseFormComponent</title>
<polygon fill="#ffffb3" stroke="#000000" points="720.479,-122 557.521,-122 557.521,-86 720.479,-86 720.479,-122"/>
<text text-anchor="middle" x="639" y="-99.8" font-family="Times,serif" font-size="14.00" fill="#000000">TestCaseFormComponent</text>
</g>
<!-- TestCaseFormComponent&#45;&gt;TestCasesModule -->
<g id="edge5" class="edge">
<title>TestCaseFormComponent&#45;&gt;TestCasesModule</title>
<path fill="none" stroke="#000000" d="M694.668,-122.1061C694.668,-122.1061 694.668,-140.991 694.668,-140.991"/>
<polygon fill="#000000" stroke="#000000" points="691.168,-140.9909 694.668,-150.991 698.168,-140.991 691.168,-140.9909"/>
</g>
<!-- TestCaseHubComponent -->
<g id="node6" class="node">
<title>TestCaseHubComponent</title>
<polygon fill="#ffffb3" stroke="#000000" points="539.252,-122 382.748,-122 382.748,-86 539.252,-86 539.252,-122"/>
<text text-anchor="middle" x="461" y="-99.8" font-family="Times,serif" font-size="14.00" fill="#000000">TestCaseHubComponent</text>
</g>
<!-- TestCaseHubComponent&#45;&gt;TestCasesModule -->
<g id="edge6" class="edge">
<title>TestCaseHubComponent&#45;&gt;TestCasesModule</title>
<path fill="none" stroke="#000000" d="M461,-122.027C461,-138.3976 461,-160 461,-160 461,-160 658.6252,-160 658.6252,-160"/>
<polygon fill="#000000" stroke="#000000" points="658.6252,-163.5001 668.6252,-160 658.6251,-156.5001 658.6252,-163.5001"/>
</g>
<!-- TestCaseListComponent -->
<g id="node7" class="node">
<title>TestCaseListComponent</title>
<polygon fill="#ffffb3" stroke="#000000" points="364.4242,-122 209.5758,-122 209.5758,-86 364.4242,-86 364.4242,-122"/>
<text text-anchor="middle" x="287" y="-99.8" font-family="Times,serif" font-size="14.00" fill="#000000">TestCaseListComponent</text>
</g>
<!-- TestCaseListComponent&#45;&gt;TestCasesModule -->
<g id="edge7" class="edge">
<title>TestCaseListComponent&#45;&gt;TestCasesModule</title>
<path fill="none" stroke="#000000" d="M287,-122.1061C287,-141.3391 287,-169 287,-169 287,-169 658.5714,-169 658.5714,-169"/>
<polygon fill="#000000" stroke="#000000" points="658.5714,-172.5001 668.5714,-169 658.5714,-165.5001 658.5714,-172.5001"/>
</g>
<!-- TestCasesRoutingModule -->
<g id="node9" class="node">
<title>TestCasesRoutingModule</title>
<polygon fill="#8dd3c7" stroke="#000000" points="185.9256,-122 182.9256,-126 161.9256,-126 158.9256,-122 24.0744,-122 24.0744,-86 185.9256,-86 185.9256,-122"/>
<text text-anchor="middle" x="105" y="-99.8" font-family="Times,serif" font-size="14.00" fill="#000000">TestCasesRoutingModule</text>
</g>
<!-- TestCasesRoutingModule&#45;&gt;TestCasesModule -->
<g id="edge8" class="edge">
<title>TestCasesRoutingModule&#45;&gt;TestCasesModule</title>
<path fill="none" stroke="#000000" d="M105,-122.2921C105,-144.2057 105,-178 105,-178 105,-178 658.7633,-178 658.7633,-178"/>
<polygon fill="#000000" stroke="#000000" points="658.7633,-181.5001 668.7633,-178 658.7633,-174.5001 658.7633,-181.5001"/>
</g>
</g>
</svg>
